<svg width="11" height="11" viewBox="0 0 11 11" fill="none" xmlns="http://www.w3.org/2000/svg">
<path d="M0.780011 10.86L1.10418e-05 10.02L2.44001 7.61997C2.08001 7.17997 1.80668 6.7133 1.62001 6.21997C1.44668 5.72664 1.36001 5.19997 1.36001 4.63997C1.36001 3.78664 1.56668 3.0133 1.98001 2.31997C2.40668 1.6133 2.97334 1.0533 3.68001 0.63997C4.38668 0.213304 5.16001 -2.98023e-05 6.00001 -2.98023e-05C6.85334 -2.98023e-05 7.62668 0.213304 8.32001 0.63997C9.02668 1.0533 9.58668 1.6133 10 2.31997C10.4267 3.0133 10.64 3.78664 10.64 4.63997C10.64 5.47997 10.4267 6.2533 10 6.95997C9.58668 7.66664 9.02668 8.2333 8.32001 8.65997C7.62668 9.0733 6.85334 9.27997 6.00001 9.27997C5.49334 9.27997 5.01334 9.20664 4.56001 9.05997C4.10668 8.9133 3.68001 8.6933 3.28001 8.39997L0.780011 10.86ZM6.00001 8.01997C6.61334 8.01997 7.17334 7.8733 7.68001 7.57997C8.20001 7.2733 8.61334 6.86664 8.92001 6.35997C9.22668 5.83997 9.38001 5.26664 9.38001 4.63997C9.38001 4.0133 9.22668 3.44664 8.92001 2.93997C8.61334 2.41997 8.20668 2.0133 7.70001 1.71997C7.19334 1.4133 6.62668 1.25997 6.00001 1.25997C5.37334 1.25997 4.80001 1.4133 4.28001 1.71997C3.77334 2.0133 3.36668 2.41997 3.06001 2.93997C2.76668 3.44664 2.62001 4.0133 2.62001 4.63997C2.62001 5.26664 2.76668 5.83997 3.06001 6.35997C3.36668 6.86664 3.77334 7.2733 4.28001 7.57997C4.80001 7.8733 5.37334 8.01997 6.00001 8.01997Z" fill="#777777"/>
</svg>
